<?xml version="1.0" encoding="UTF-8"?>
<svg version="1.1" xmlns="http://www.w3.org/2000/svg" width="200" height="200">
<path d="M0 0 C18.46932204 15.7123073 30.47154151 37.43028186 33.25 61.625 C34.75362023 89.96402419 28.19811513 114.1876926 9.58203125 136.0703125 C-6.06930055 153.21599256 -28.62421304 165.50410182 -52.12890625 166.7512207 C-80.93647179 167.60664898 -105.12479939 160.36543542 -126.75 140.625 C-144.16438532 123.69913704 -154.64496015 100.27850036 -154.99169922 75.94970703 C-155.07380977 48.00796892 -146.13374676 24.51048478 -126.44921875 4.2578125 C-91.20438267 -29.08345632 -37.54726643 -29.52746195 0 0 Z M-117.75 10.625 C-118.78253906 11.51445313 -118.78253906 11.51445313 -119.8359375 12.421875 C-135.16358359 26.59843305 -143.81730723 48.05939998 -145.02734375 68.625 C-145.83139033 90.87753237 -138.14081395 110.03947324 -124.75 127.625 C-121.70418514 126.26386987 -119.61160974 124.73169904 -117.26660156 122.36865234 C-116.27602753 121.37785172 -116.27602753 121.37785172 -115.26544189 120.36703491 C-114.56425232 119.65552277 -113.86306274 118.94401062 -113.140625 118.2109375 C-112.41381531 117.48129791 -111.68700562 116.75165833 -110.93817139 115.99990845 C-108.62070802 113.6712612 -106.3103005 111.33575174 -104 109 C-102.42884556 107.41881347 -100.85723629 105.83807875 -99.28515625 104.2578125 C-95.43481347 100.3854331 -91.59023883 96.50739829 -87.75 92.625 C-84.08478106 94.5540626 -82.4172132 95.85429351 -80.75 99.625 C-81.407724 100.27606216 -81.407724 100.27606216 -82.07873535 100.9402771 C-86.62634593 105.44376687 -91.16700114 109.95418165 -95.70361328 114.46875 C-97.39941505 116.15447126 -99.09700434 117.83839624 -100.79638672 119.52050781 C-103.23352564 121.9334885 -105.66424067 124.35277821 -108.09375 126.7734375 C-108.85933228 127.5286972 -109.62491455 128.28395691 -110.41369629 129.06210327 C-111.11442261 129.76267853 -111.81514893 130.46325378 -112.53710938 131.18505859 C-113.46976624 132.11105362 -113.46976624 132.11105362 -114.42126465 133.05575562 C-115.96540034 134.53668474 -115.96540034 134.53668474 -115.75 136.625 C-97.81292746 151.47677507 -75.93589645 158.12138332 -52.75 156.625 C-28.63444191 153.57148467 -7.7175631 141.79442051 7.25 122.625 C20.57512055 103.21316708 26.23954565 80.16187383 22.0625 56.9375 C18.7924926 42.4058316 12.61269933 29.21217045 3.25 17.625 C0.24501625 18.96782534 -1.78742056 20.43642478 -4.06225586 22.80541992 C-4.68647934 23.44916061 -5.31070282 24.09290131 -5.95384216 24.75614929 C-6.61747269 25.44892471 -7.28110321 26.14170013 -7.96484375 26.85546875 C-9.38678145 28.31242339 -10.80932599 29.76878598 -12.23242188 31.22460938 C-14.46860341 33.52285917 -16.69982337 35.82533533 -18.9206543 38.13842773 C-21.06785541 40.37006535 -23.2333175 42.58256684 -25.40234375 44.79296875 C-26.06395004 45.49181686 -26.72555634 46.19066498 -27.4072113 46.91069031 C-32.04187678 51.59639204 -32.04187678 51.59639204 -35.58422852 51.73950195 C-37.75 50.625 -37.75 50.625 -39.75 47.625 C-39.4390737 44.19181892 -38.01924826 42.53298174 -35.60717773 40.17333984 C-34.94656845 39.51941254 -34.28595917 38.86548523 -33.60533142 38.19174194 C-32.53032127 37.14936874 -32.53032127 37.14936874 -31.43359375 36.0859375 C-30.70253922 35.36387115 -29.97148468 34.64180481 -29.21827698 33.89785767 C-26.88169399 31.59132063 -24.53548117 29.29492895 -22.1875 27 C-19.83684843 24.69706644 -17.48845801 22.39199892 -15.14601135 20.08071899 C-13.6875945 18.64216774 -12.22426114 17.20858148 -10.75572205 15.78036499 C-10.09826492 15.132742 -9.4408078 14.48511902 -8.76342773 13.81787109 C-8.18020248 13.24813568 -7.59697723 12.67840027 -6.99607849 12.09140015 C-5.53415356 10.69171077 -5.53415356 10.69171077 -5.75 8.625 C-38.80726405 -18.74619165 -85.54342323 -17.59614754 -117.75 10.625 Z " fill="#000000" transform="translate(160.75,27.375)"/>
<path d="M0 0 C2.17334998 0.00843879 4.3440042 -0.02013925 6.51708984 -0.05200195 C18.13335515 -0.11113075 27.9991207 2.11029265 36.57568359 10.44604492 C40.46257076 15.31613995 43.40063746 20.75914048 46.20458984 26.30541992 C49.59228486 31.59447083 54.1208162 34.57874283 59.57568359 37.44604492 C69.50037203 42.66286833 76.84194894 50.83437802 80.57568359 61.44604492 C82.70903487 70.56127311 82.00140359 79.49774929 77.28662109 87.68432617 C72.6591715 94.25431477 67.35631821 98.32405366 59.57568359 100.44604492 C56.93913256 100.6832242 54.45835203 100.82734468 51.82568359 100.82104492 C51.12266113 100.81943359 50.41963867 100.81782227 49.6953125 100.81616211 C43.68800958 100.67552752 38.86231435 99.36840511 33.57568359 96.44604492 C32.52380859 95.86854492 31.47193359 95.29104492 30.38818359 94.69604492 C24.36992834 89.88144072 20.5743509 84.6853206 17.07568359 77.82104492 C12.69507279 69.44578022 8.39049044 66.33309694 0.07568359 62.07104492 C-9.78887019 56.91791981 -14.77496328 49.80535915 -18.47900391 39.51635742 C-20.01967781 33.93559507 -20.01522192 28.13536693 -20.23681641 22.38354492 C-20.300625 21.22532227 -20.36443359 20.06709961 -20.43017578 18.8737793 C-20.86961077 8.0983382 -20.86961077 8.0983382 -17.42431641 3.44604492 C-12.64981429 -1.1895702 -6.21885476 -0.03681029 0 0 Z M3.57568359 12.44604492 C3.57568359 13.76604492 3.57568359 15.08604492 3.57568359 16.44604492 C7.20568359 16.44604492 10.83568359 16.44604492 14.57568359 16.44604492 C14.57568359 15.45604492 14.57568359 14.46604492 14.57568359 13.44604492 C11.82489475 12.52911531 10.21619447 12.33718409 7.38818359 12.38354492 C6.13005859 12.40416992 4.87193359 12.42479492 3.57568359 12.44604492 Z M20.57568359 16.44604492 C20.91915787 19.65180479 21.546469 20.42121252 24.07568359 22.57104492 C25.31318359 23.49916992 25.31318359 23.49916992 26.57568359 24.44604492 C26.90568359 25.10604492 27.23568359 25.76604492 27.57568359 26.44604492 C28.89568359 26.11604492 30.21568359 25.78604492 31.57568359 25.44604492 C29.48018848 21.47563313 27.3080306 18.96537915 23.57568359 16.44604492 C22.58568359 16.44604492 21.59568359 16.44604492 20.57568359 16.44604492 Z M16.57568359 26.44604492 C15.70131941 28.18180141 15.70131941 28.18180141 15.57568359 30.44604492 C17.35399993 33.06486326 17.35399993 33.06486326 19.57568359 35.44604492 C20.56568359 36.93104492 20.56568359 36.93104492 21.57568359 38.44604492 C22.56568359 38.44604492 23.55568359 38.44604492 24.57568359 38.44604492 C24.25665947 33.18214681 21.18289795 30.00202043 17.57568359 26.44604492 C17.24568359 26.44604492 16.91568359 26.44604492 16.57568359 26.44604492 Z M32.57568359 31.44604492 C32.97776741 37.07521841 34.86498661 39.44990971 38.57568359 43.44604492 C39.56568359 43.11604492 40.55568359 42.78604492 41.57568359 42.44604492 C40.08699652 37.84464852 37.82938504 34.94377398 34.57568359 31.44604492 C33.91568359 31.44604492 33.25568359 31.44604492 32.57568359 31.44604492 Z M26.57568359 43.44604492 C26.57568359 48.55930403 28.07134286 49.86206008 31.57568359 53.44604492 C33.74099528 54.39040841 33.74099528 54.39040841 35.57568359 54.44604492 C35.97912714 50.57442596 35.97912714 50.57442596 34.11474609 48.52416992 C33.48310547 47.92088867 32.85146484 47.31760742 32.20068359 46.69604492 C31.57419922 46.08245117 30.94771484 45.46885742 30.30224609 44.83666992 C28.68557426 43.23695486 28.68557426 43.23695486 26.57568359 43.44604492 Z M46.57568359 45.44604492 C46.57568359 46.76604492 46.57568359 48.08604492 46.57568359 49.44604492 C47.82029142 50.12272491 49.07165256 50.78699211 50.32568359 51.44604492 C51.02177734 51.81729492 51.71787109 52.18854492 52.43505859 52.57104492 C54.80736116 53.69829142 54.80736116 53.69829142 58.57568359 53.44604492 C58.57568359 52.45604492 58.57568359 51.46604492 58.57568359 50.44604492 C57.14273861 49.60490321 55.70413954 48.77338805 54.26318359 47.94604492 C53.46267578 47.48198242 52.66216797 47.01791992 51.83740234 46.53979492 C49.5442718 45.22836607 49.5442718 45.22836607 46.57568359 45.44604492 Z M41.57568359 55.44604492 C41.57568359 56.76604492 41.57568359 58.08604492 41.57568359 59.44604492 C43.17235348 61.06099135 43.17235348 61.06099135 45.32568359 62.25854492 C46.02177734 62.69811523 46.71787109 63.13768555 47.43505859 63.59057617 C49.95375007 64.59713353 51.07178545 64.36526879 53.57568359 63.44604492 C50.714269 59.37403184 48.18001118 57.3478324 43.57568359 55.44604492 C42.91568359 55.44604492 42.25568359 55.44604492 41.57568359 55.44604492 Z M61.57568359 57.44604492 C62.29576765 62.05458289 63.88864299 66.11841901 65.57568359 70.44604492 C66.56568359 70.11604492 67.55568359 69.78604492 68.57568359 69.44604492 C68.11466524 64.74365768 67.54391957 61.21342135 64.57568359 57.44604492 C63.58568359 57.44604492 62.59568359 57.44604492 61.57568359 57.44604492 Z " fill="#000000" transform="translate(69.42431640625,49.553955078125)"/>
</svg>
