<?xml version="1.0" encoding="UTF-8"?>
<svg version="1.1" xmlns="http://www.w3.org/2000/svg" width="200" height="200">
<path d="M0 0 C18.46932204 15.7123073 30.47154151 37.43028186 33.25 61.625 C34.75362023 89.96402419 28.19811513 114.1876926 9.58203125 136.0703125 C-6.06930055 153.21599256 -28.62421304 165.50410182 -52.12890625 166.7512207 C-80.93647179 167.60664898 -105.12479939 160.36543542 -126.75 140.625 C-144.16438532 123.69913704 -154.64496015 100.27850036 -154.99169922 75.94970703 C-155.07380977 48.00796892 -146.13374676 24.51048478 -126.44921875 4.2578125 C-91.20438267 -29.08345632 -37.54726643 -29.52746195 0 0 Z M-117.75 10.625 C-118.78253906 11.51445313 -118.78253906 11.51445313 -119.8359375 12.421875 C-135.16358359 26.59843305 -143.81730723 48.05939998 -145.02734375 68.625 C-145.83139033 90.87753237 -138.14081395 110.03947324 -124.75 127.625 C-121.07295309 126.0944712 -118.85096109 123.89116921 -116.125 121.01953125 C-115.25359375 120.11912109 -114.3821875 119.21871094 -113.484375 118.29101562 C-111.65559568 116.38255378 -109.83269955 114.46843759 -108.015625 112.54882812 C-106.70851563 111.20401367 -106.70851563 111.20401367 -105.375 109.83203125 C-104.58351562 109.0016333 -103.79203125 108.17123535 -102.9765625 107.31567383 C-100.75 105.625 -100.75 105.625 -98.4609375 105.86206055 C-97.89632812 106.11383057 -97.33171875 106.36560059 -96.75 106.625 C-95.6773796 109.83164915 -95.21521194 111.3559029 -95.75 114.625 C-98.58249922 118.58015962 -102.10352132 121.73048965 -105.6875 125 C-107.57526131 126.77477492 -109.45957651 128.55322499 -111.33984375 130.3359375 C-112.18409912 131.11243652 -113.02835449 131.88893555 -113.89819336 132.68896484 C-115.9804041 134.41937213 -115.9804041 134.41937213 -115.75 136.625 C-97.81292746 151.47677507 -75.93589645 158.12138332 -52.75 156.625 C-28.63444191 153.57148467 -7.7175631 141.79442051 7.25 122.625 C20.57512055 103.21316708 26.23954565 80.16187383 22.0625 56.9375 C18.7924926 42.4058316 12.61269933 29.21217045 3.25 17.625 C0.16151327 18.99281007 -1.86509419 20.52699443 -4.18237305 22.97314453 C-4.83372726 23.65369904 -5.48508148 24.33425354 -6.15617371 25.03543091 C-6.85100357 25.76881683 -7.54583344 26.50220276 -8.26171875 27.2578125 C-9.75608399 28.8018248 -11.25156193 30.34476081 -12.74804688 31.88671875 C-15.09807264 34.31706838 -17.44048502 36.75315383 -19.7644043 39.20849609 C-22.01374159 41.57915507 -24.29085932 43.91996664 -26.57421875 46.2578125 C-27.25892746 46.99524689 -27.94363617 47.73268127 -28.64909363 48.49246216 C-33.50566697 53.40097922 -33.50566697 53.40097922 -37.26113892 54.0770874 C-39.4780931 54.08450296 -41.56097358 53.96221341 -43.75 53.625 C-44.04221139 50.61132461 -44.09084316 49.10472348 -42.30737305 46.59455872 C-41.29477417 45.60766304 -41.29477417 45.60766304 -40.26171875 44.60083008 C-39.12053589 43.46989677 -39.12053589 43.46989677 -37.95629883 42.31611633 C-37.12509521 41.51699326 -36.2938916 40.71787018 -35.4375 39.89453125 C-34.59405029 39.06289963 -33.75060059 38.23126801 -32.8815918 37.37443542 C-30.18260454 34.71671875 -27.46737332 32.07640448 -24.75 29.4375 C-22.03528533 26.78535514 -19.32416397 24.12971406 -16.6184082 21.46842957 C-14.93265254 19.81203051 -13.24118863 18.1614182 -11.54370117 16.51704407 C-10.7829126 15.77254501 -10.02212402 15.02804596 -9.23828125 14.26098633 C-8.56321533 13.60544266 -7.88814941 12.94989899 -7.19262695 12.27449036 C-5.5305568 10.73931416 -5.5305568 10.73931416 -5.75 8.625 C-38.80726405 -18.74619165 -85.54342323 -17.59614754 -117.75 10.625 Z " fill="#000000" transform="translate(160.75,27.375)"/>
<path d="M0 0 C0.66 0 1.32 0 2 0 C3.80001311 3.20371779 5.58848468 6.41373872 7.375 9.625 C7.88289063 10.52863281 8.39078125 11.43226562 8.9140625 12.36328125 C14.35049411 22.16316454 17.16383899 31.39467499 14.32421875 42.6875 C13.5 44.875 13.5 44.875 12 48 C12.7425 48.474375 13.485 48.94875 14.25 49.4375 C18.67688382 53.56255083 20.68224741 57.97938897 21.31640625 64.0078125 C21.42339436 69.69958009 20.94577156 74.6491282 19 80 C19.88429687 80.24492188 20.76859375 80.48984375 21.6796875 80.7421875 C28.28994697 83.24630932 34.19697156 88.79171292 37.5 95.0625 C38.0418301 96.3582918 38.54394006 97.67159284 39 99 C39.22171875 99.63550781 39.4434375 100.27101563 39.671875 100.92578125 C41.25253789 106.25517841 41.20358431 111.48060322 41 117 C39.12699975 117.65161012 37.2514945 118.29602195 35.375 118.9375 C33.80878906 119.47697266 33.80878906 119.47697266 32.2109375 120.02734375 C22.53297161 122.95899035 11.22532604 123.74546522 2 119 C-3.92836666 114.91178385 -6.43290102 109.59657014 -9 103 C-9.35010736 101.03033125 -9.64609847 99.04990389 -9.875 97.0625 C-10.34882244 93.29623122 -10.34882244 93.29623122 -12.6796875 90.484375 C-14.06665936 89.69929659 -15.47398164 88.94919285 -16.8984375 88.234375 C-22.47077605 84.96140292 -25.3653878 79.04063507 -27 73 C-27.76180179 65.36426577 -27.69745784 59.3761019 -23.6953125 52.78515625 C-22.76732028 50.40261444 -23.2276793 49.39806371 -24.1875 47.0625 C-24.49429688 46.40121094 -24.80109375 45.73992187 -25.1171875 45.05859375 C-28.0061918 38.32184478 -27.30310479 30.80219321 -25 24 C-21.42854906 16.39666717 -15.95403173 12.39433285 -9 8 C-3.93071813 4.61538758 -3.93071813 4.61538758 0 0 Z M-13 24 C-15.34765001 26.98791819 -15.41221098 30.21601031 -15.328125 33.96484375 C-14.79173147 37.29176075 -13.11151942 39.45375599 -11 42 C-8.14675563 43.42662219 -6.16545451 43.31033868 -3 43 C0.37940996 40.84946639 2.81543238 38.87676675 4 35 C4.42156214 29.68831706 4.5213641 26.27594212 1 22 C-4.38073833 18.35498371 -8.25201822 20.28418817 -13 24 Z M-13 56 C-16.00717347 60.45891239 -16.88048313 64.71710121 -16 70 C-14.57218162 74.43672378 -12.70477176 77.3592984 -9.25 80.5 C-5.29235188 82.32660682 -2.27850446 83.00370482 2 82 C5.51765905 80.00944563 7.69738144 77.90785567 9 74 C9.72821384 66.64784102 8.36571731 62.13109644 3.875 56.1875 C-1.32812772 52.22859847 -7.91238525 51.36129244 -13 56 Z M5 93 C2.91586169 95.65253967 3.00049477 97.01360617 3.125 100.4375 C4.08477738 104.34516506 5.17468772 106.17468772 8 109 C12.20961313 111.51161792 16.20650328 111.83736663 21 111 C24.09443522 108.74364099 25.55323938 107.08897902 27 103.5625 C27 98.93989827 24.92879785 96.0107506 21.875 92.6875 C16.32131118 89.42772613 10.10789481 88.51124395 5 93 Z " fill="#000000" transform="translate(80,39)"/>
<path d="M0 0 C3.94999194 2.10941978 6.42680535 4.36138863 9.1875 7.875 C9.86167969 8.71804687 10.53585938 9.56109375 11.23046875 10.4296875 C14.5962896 15.31867232 15.34200281 19.07195123 15 25 C14.67 25.33 14.34 25.66 14 26 C14.61746094 26.00257812 15.23492187 26.00515625 15.87109375 26.0078125 C22.9325591 26.33025384 27.74052476 28.21865887 33 33 C35.38289076 36.64880147 37 40.55616386 37 45 C37.83402344 44.96519531 38.66804688 44.93039063 39.52734375 44.89453125 C49.83137479 44.64666796 56.32910985 45.43769491 64.3125 52.1875 C68.95540337 56.63514108 72.69862874 60.88125938 73.1875 67.5625 C69.54999736 75.02895278 62.50227446 79.09625823 55 82 C45.93750168 84.95708143 34.50623136 85.03173792 25.62890625 81.26953125 C22.7593471 79.03306429 21.69469986 75.84009734 20.26953125 72.5703125 C16.96223755 65.87431479 11.32512557 62.48712173 5 59 C5.05800781 57.81664062 5.11601563 56.63328125 5.17578125 55.4140625 C5.48693692 46.30577494 5.72806693 38.63204411 0 31 C-0.5775 30.53980469 -1.155 30.07960938 -1.75 29.60546875 C-2.1625 29.07566406 -2.575 28.54585937 -3 28 C-2.63671875 25.328125 -2.63671875 25.328125 -1.6875 22.25 C0.04771641 16.05386243 0.27871843 10.97339508 -0.5625 4.625 C-0.706875 3.42875 -0.85125 2.2325 -1 1 C-0.67 0.67 -0.34 0.34 0 0 Z " fill="#000000" transform="translate(97,59)"/>
</svg>
