<?xml version="1.0" encoding="UTF-8"?>
<svg version="1.1" xmlns="http://www.w3.org/2000/svg" width="382" height="382">
<path d="M0 0 C125.73 0 251.46 0 381 0 C381 1.98 381 3.96 381 6 C378.40805296 7.29597352 376.08638183 7.46268307 373.20703125 7.83203125 C372.02608887 7.98865234 370.84514648 8.14527344 369.62841797 8.30664062 C368.36916504 8.47357422 367.10991211 8.64050781 365.8125 8.8125 C355.6214157 10.21923291 345.7889771 11.74985406 336 15 C335.10023438 15.29519531 334.20046875 15.59039062 333.2734375 15.89453125 C323.58917716 19.41744329 313.50342445 25.45262741 306.9375 33.5 C305.38051914 35.39770521 303.85283504 37.13913778 302.06640625 38.828125 C299.58998388 41.43094322 297.86279992 44.17929076 296 47.25 C295.34 48.32765625 294.68 49.4053125 294 50.515625 C290.20684746 57.00237128 287.26006136 63.54175547 284.9375 70.6875 C284.55235229 71.85998291 284.55235229 71.85998291 284.15942383 73.05615234 C276.17144372 97.83943771 274.55404484 123.95131762 286 148 C287.75476575 150.99648559 289.58965135 153.89005437 291.546875 156.7578125 C293 159 293 159 294 162 C294.66 162 295.32 162 296 162 C297.55078125 163.57421875 297.55078125 163.57421875 299.3125 165.6875 C304.0353833 171.3231203 309.14613069 176.06779895 314.9375 180.5625 C315.82985352 181.26536133 315.82985352 181.26536133 316.74023438 181.98242188 C319.57180349 184.19506878 322.40594678 186.28950535 325.44140625 188.21484375 C326.28574219 188.80394531 327.13007813 189.39304688 328 190 C328 190.66 328 191.32 328 192 C323.52598171 191.44240722 320.14074488 190.2735182 316.125 188.25 C293.78389973 177.65262519 268.90374692 174.09534655 245.25 182.5 C235.05723442 186.33275574 224.50593042 192.00025837 217 200 C215.75967863 201.09440121 214.50956778 202.17780594 213.25 203.25 C204.60726834 210.75856682 204.60726834 210.75856682 198 220 C197.39414063 220.5878125 196.78828125 221.175625 196.1640625 221.78125 C182.894917 235.38571687 177.57661094 256.38705426 177.70141602 274.8034668 C178.15254481 291.34290283 183.27908747 307.72202318 191.25024414 322.17578125 C192 324 192 324 192 328 C188.33790831 326.77930277 187.84123269 325.66616538 185.75 322.5 C179.27450743 312.95069767 172.44824004 304.94853282 163.57421875 297.55078125 C163.05472656 297.03902344 162.53523437 296.52726562 162 296 C162 295.34 162 294.68 162 294 C161.46761719 293.74863281 160.93523437 293.49726563 160.38671875 293.23828125 C158 292 158 292 155.14453125 290.23046875 C134.11691557 277.33780404 109.98332191 275.09500219 86.11914062 280.49072266 C70.76424841 284.18084998 57.52210171 289.75965902 44 298 C42.88625 298.66 41.7725 299.32 40.625 300 C37.77244369 302.17337623 35.69075081 304.51403407 33.43359375 307.28125 C32 309 32 309 29.5 311.4375 C13.16996801 328.17578279 9.7497978 352.75578747 7.44921875 375.109375 C7 379 7 379 6 381 C4.02 381 2.04 381 0 381 C0 255.27 0 129.54 0 0 Z M33 13 C38.16609164 17.13287331 43.44500672 20.39799359 49.125 23.75 C50.62740234 24.65298828 50.62740234 24.65298828 52.16015625 25.57421875 C53.12050781 26.14269531 54.08085938 26.71117187 55.0703125 27.296875 C55.94445801 27.81604492 56.81860352 28.33521484 57.71923828 28.87011719 C60.02382019 30.22195548 60.02382019 30.22195548 63 30 C63.12117188 29.27554687 63.24234375 28.55109375 63.3671875 27.8046875 C63.53476563 26.83789062 63.70234375 25.87109375 63.875 24.875 C64.03742188 23.92367188 64.19984375 22.97234375 64.3671875 21.9921875 C65 19 65 19 67 13 C55.78 13 44.56 13 33 13 Z M72.859375 14.640625 C70.15580352 19.0380003 68.87842262 23.85513774 68.6875 29 C68.65011719 29.66 68.61273438 30.32 68.57421875 31 C69.20762254 33.97525451 70.6884508 35.07049316 73 37 C74.8804355 38.14506966 76.79971715 39.22842327 78.75 40.25 C79.73484375 40.77078125 80.7196875 41.2915625 81.734375 41.828125 C82.48203125 42.21484375 83.2296875 42.6015625 84 43 C84.02126953 41.58460937 84.02126953 41.58460937 84.04296875 40.140625 C84.38038088 31.05785514 85.99591408 24.27871819 90 16 C90.33 15.01 90.66 14.02 91 13 C81.45274235 11.75488994 81.45274235 11.75488994 72.859375 14.640625 Z M97.3125 15.875 C96.01982983 17.80963738 96.01982983 17.80963738 95 20 C94.60554688 20.78375 94.21109375 21.5675 93.8046875 22.375 C91.38037874 27.8000266 89.98954214 33.04947896 90 39 C89.99097656 39.76441406 89.98195313 40.52882813 89.97265625 41.31640625 C90.22497444 44.02767989 90.61083759 45.64056108 92 48 C95.72208855 50.93094562 99.60878617 53.21606938 104 55 C104.99 54.505 104.99 54.505 106 54 C105.95359375 52.92363281 105.9071875 51.84726562 105.859375 50.73828125 C105.47444448 37.96211415 106.93576237 27.23669328 114.828125 16.70703125 C116.18865608 15.07028544 116.18865608 15.07028544 116 13 C105.84047836 11.69016338 105.84047836 11.69016338 97.3125 15.875 Z M121.0859375 19.48046875 C115.46148552 28.37943045 112.77787684 35.06042717 112.625 45.5625 C112.61090088 46.27100098 112.59680176 46.97950195 112.58227539 47.70947266 C112.6290709 52.82143744 113.24328098 57.59819995 116 62 C118.3118182 64.09896092 120.81437987 65.53884246 123.5625 67 C124.24763672 67.39316406 124.93277344 67.78632812 125.63867188 68.19140625 C129.10587503 70.29019703 129.10587503 70.29019703 133 71 C132.84144531 69.98808594 132.68289062 68.97617188 132.51953125 67.93359375 C129.69429442 46.54251493 135.94533715 30.43933858 148 13 C144.77113991 12.88332125 141.54282555 12.81259454 138.3125 12.75 C137.40048828 12.71648438 136.48847656 12.68296875 135.54882812 12.6484375 C128.50545447 12.54598843 125.48535418 13.77918387 121.0859375 19.48046875 Z M156 19 C155.22269531 19.70382813 154.44539062 20.40765625 153.64453125 21.1328125 C144.7160881 30.84178053 140.58634374 43.36305342 140.6875 56.4375 C140.69168945 57.18104736 140.69587891 57.92459473 140.70019531 58.69067383 C140.86745493 66.8214486 142.65302766 73.66805907 148 80 C157.24647533 87.43765681 157.24647533 87.43765681 168 91 C167.855625 90.43796875 167.71125 89.8759375 167.5625 89.296875 C162.71758108 67.36015879 166.59484098 46.13324491 178 27 C179.84735706 24.1708308 181.80375119 21.56323126 184 19 C184.89299252 17.93057627 185.78484092 16.86019653 186.67578125 15.7890625 C187.82626953 14.40847656 187.82626953 14.40847656 189 13 C185.00056323 12.82434906 181.00212936 12.71869534 177 12.625 C175.87464844 12.57472656 174.74929687 12.52445313 173.58984375 12.47265625 C165.80357807 12.3360551 161.54575464 13.48836259 156 19 Z M199 19 C198.09765625 19.73863281 197.1953125 20.47726563 196.265625 21.23828125 C182.85530934 35.03843167 176.12326145 51.61979097 175.6875 70.875 C176.06529104 81.86379165 178.92106212 94.9832078 187 103 C189.06523768 104.40657134 191.15882075 105.5484836 193.390625 106.671875 C197.48196357 108.75429284 201.36790612 111.18200891 205.30078125 113.546875 C207.60999286 114.79003957 209.44165853 115.53816164 212 116 C211.40021544 111.40183625 211.40021544 111.40183625 210.48828125 106.859375 C205.31395662 84.10702558 209.4390814 56.80472147 221.37890625 36.67529297 C226.51196114 28.66243345 232.12865398 21.58245728 239 15 C239.66 14.34 240.32 13.68 241 13 C236.62594822 12.85012474 232.25330972 12.74208304 227.87744141 12.67041016 C226.39345219 12.64049232 224.90963586 12.59974064 223.42626953 12.54736328 C213.88492681 12.21923889 206.69947797 12.68933353 199 19 Z M236 37 C223.26966588 53.58152763 218.79432202 77.69765824 221.24755859 98.05419922 C222.37697182 105.47845773 224.43929344 112.3923801 228 119 C228.69996094 120.30130859 228.69996094 120.30130859 229.4140625 121.62890625 C234.35219752 130.32762102 240.62502303 134.10413562 249.1875 138.9375 C250.08275391 139.44990234 250.97800781 139.96230469 251.90039062 140.49023438 C257.83825032 143.86431061 263.86072561 147.00873122 270 150 C269.432886 146.97962177 268.74586238 144.20259114 267.80859375 141.26171875 C261.26657979 120.10944321 261.51938406 95.15014811 268 74 C268.20898926 73.28924316 268.41797852 72.57848633 268.63330078 71.84619141 C272.86638721 57.75175756 279.25672837 43.17962617 289 32 C289.69996094 31.18144531 290.39992188 30.36289062 291.12109375 29.51953125 C294.57382189 25.57771515 298.02641446 21.84978759 302.0625 18.5 C303.031875 17.675 304.00125 16.85 305 16 C305 15.34 305 14.68 305 14 C305.99 13.67 306.98 13.34 308 13 C302.23839358 12.85031798 296.47794854 12.74216196 290.71484375 12.67041016 C288.75956477 12.6404627 286.80441749 12.59968895 284.84960938 12.54736328 C262.40508335 11.96215325 250.18831469 19.36822916 236 37 Z M26 26 C27.31293711 29.44311058 28.8143342 32.64211396 30.6015625 35.86328125 C31.09140625 36.74951172 31.58125 37.63574219 32.0859375 38.54882812 C32.59382813 39.46083984 33.10171875 40.37285156 33.625 41.3125 C34.3984375 42.70952148 34.3984375 42.70952148 35.1875 44.13476562 C36.45573517 46.42463469 37.72664162 48.71297715 39 51 C39.66 51 40.32 51 41 51 C41.33 52.32 41.66 53.64 42 55 C42.66 55 43.32 55 44 55 C44.598125 54.0925 45.19625 53.185 45.8125 52.25 C48.33092602 48.50833849 50.96169835 46.01915083 55 44 C54.67 43.01 54.34 42.02 54 41 C53.01 41 52.02 41 51 41 C51 40.34 51 39.68 51 39 C47.39801864 37.01683656 43.79305369 35.03916011 40.1875 33.0625 C39.16333984 32.49853516 38.13917969 31.93457031 37.08398438 31.35351562 C36.10107422 30.81533203 35.11816406 30.27714844 34.10546875 29.72265625 C33.19949951 29.22515869 32.29353027 28.72766113 31.36010742 28.21508789 C28.95112921 26.89865563 28.95112921 26.89865563 26 26 Z M13 33 C13 44.22 13 55.44 13 67 C16.3 66.01 19.6 65.02 23 64 C25.32495277 63.61250787 27.65677903 63.25469793 30 63 C29.31769325 59.17262249 27.56792694 56.25930333 25.62109375 52.921875 C25.28956802 52.35043762 24.9580423 51.77900024 24.61647034 51.19024658 C23.56140744 49.37411117 22.49957418 47.56204234 21.4375 45.75 C20.71894998 44.51588751 20.00084595 43.28151524 19.28320312 42.046875 C17.52729156 39.02822352 15.76528784 36.01318011 14 33 C13.67 33 13.34 33 13 33 Z M53 52 C50.4772095 54.72195817 48.21516023 57.46498842 47 61 C47.47127795 65.06823761 48.90244672 67.86560648 51.0625 71.3125 C51.88427734 72.63701172 51.88427734 72.63701172 52.72265625 73.98828125 C53.14417969 74.65214844 53.56570312 75.31601563 54 76 C56.36260784 73.76471833 58.22045439 71.38140118 60.125 68.75 C63.30526816 64.59535181 66.75873475 61.56623044 70.984375 58.5078125 C72.83643457 57.12235708 74.4132277 55.67715806 76 54 C74.06730041 52.82539808 72.12866687 51.66055528 70.1875 50.5 C69.10855469 49.8503125 68.02960938 49.200625 66.91796875 48.53125 C61.14050258 45.49943375 57.7571738 48.48257452 53 52 Z M68.05078125 68.82421875 C63.78818828 73.34662691 60.12822554 78.40573264 59.58203125 84.76953125 C60.52364361 89.79439719 64.020822 93.95842186 67 98 C68.96715805 96.03284195 69.72616213 94.67031902 70.875 92.1875 C72.5444137 88.72942876 74.55426863 85.96981667 77 83 C77 82.34 77 81.68 77 81 C77.66 81 78.32 81 79 81 C79 80.34 79 79.68 79 79 C79.66 79 80.32 79 81 79 C81 78.34 81 77.68 81 77 C81.57878906 76.7215625 82.15757813 76.443125 82.75390625 76.15625 C84.91065887 75.04599126 86.90436496 73.82053127 88.9375 72.5 C91.8731932 70.6398131 94.69709151 69.13537479 98 68 C94.70393922 64.30841192 91.38972324 62.19486162 87 60 C78.85739428 60 73.79714163 63.3954465 68.05078125 68.82421875 Z M13 75 C12.85492305 77.74485593 12.81347577 80.38480543 12.875 83.125 C12.88402344 83.87910156 12.89304687 84.63320312 12.90234375 85.41015625 C12.9259313 87.27357254 12.96180281 89.13682593 13 91 C14.36318359 90.36771484 14.36318359 90.36771484 15.75390625 89.72265625 C25.00679973 85.6243257 32.85684124 84.02877492 43 84 C42.09238938 82.24528614 41.17349289 80.49640736 40.25 78.75 C39.73953125 77.77546875 39.2290625 76.8009375 38.703125 75.796875 C37.0232249 73.03813997 35.48628131 71.05430193 33 69 C25.9925354 68.03345316 18.12060317 69.87939683 13 75 Z M80.5390625 89.91015625 C75.91794045 96.1850301 72.95122771 103.09829094 74 111 C75.03860324 113.70144469 76.45140711 116.06201255 78 118.5 C78.3815625 119.13164063 78.763125 119.76328125 79.15625 120.4140625 C80.08851676 121.95230266 81.04208511 123.47759954 82 125 C82.66 125 83.32 125 84 125 C84.268125 124.26136719 84.53625 123.52273437 84.8125 122.76171875 C91.09855158 106.48828915 101.9300343 93.92505112 117.9296875 86.671875 C120.27197364 85.72965225 122.61672894 84.83233545 125 84 C125 83.34 125 82.68 125 82 C122.84494618 80.64401108 120.67909752 79.31635278 118.5 78 C117.89929688 77.6184375 117.29859375 77.236875 116.6796875 76.84375 C103.05989683 68.72983216 89.35078777 79.42862916 80.5390625 89.91015625 Z M14.7265625 98.6796875 C12.30857508 101.92920001 12.55954045 104.87488078 12.75 108.75 C12.76804687 109.44738281 12.78609375 110.14476563 12.8046875 110.86328125 C12.85161446 112.57611539 12.92335395 114.28823824 13 116 C15.26003043 114.88074683 17.50189838 113.73614485 19.734375 112.5625 C20.72953125 112.046875 21.7246875 111.53125 22.75 111 C23.73484375 110.484375 24.7196875 109.96875 25.734375 109.4375 C32.75767359 106.34590445 38.94068417 105.71494934 46.5 105.875 C47.32242188 105.88402344 48.14484375 105.89304687 48.9921875 105.90234375 C50.99492083 105.92563135 52.99750154 105.96149041 55 106 C52.64051498 98.36036757 52.64051498 98.36036757 48 92 C36.62164984 87.19172945 24.14734261 91.71931731 14.7265625 98.6796875 Z M100.4375 112.25 C94.26186958 120.35887125 89.9906955 130.64201256 91 141 C92.1636159 143.70747707 93.67179691 146.14143276 95.25 148.625 C95.64574219 149.27984375 96.04148437 149.9346875 96.44921875 150.609375 C98.64625638 154.16785562 100.87184145 157.17317783 104 160 C104.38929687 158.86304688 104.77859375 157.72609375 105.1796875 156.5546875 C112.4697844 136.11395835 124.70370165 120.4396427 144 110 C149.19712757 107.62236216 154.56652528 105.7564189 160 104 C156.6348718 100.27615255 152.87955751 97.82115975 148.625 95.25 C147.97789062 94.83878906 147.33078125 94.42757812 146.6640625 94.00390625 C129.98633109 83.88294424 110.64564674 99.80680639 100.4375 112.25 Z M14.41918945 125.79760742 C12.75443108 128.38109019 12.64852919 129.72351789 12.70703125 132.765625 C12.71669922 133.65507812 12.72636719 134.54453125 12.73632812 135.4609375 C12.76146484 136.38132813 12.78660156 137.30171875 12.8125 138.25 C12.82603516 139.18585938 12.83957031 140.12171875 12.85351562 141.0859375 C12.88880046 143.39121327 12.93809719 145.6953106 13 148 C13.57717773 147.60103516 14.15435547 147.20207031 14.74902344 146.79101562 C32.70525679 134.46894352 49.28575798 129.59764106 71 133 C66.92659334 121.68847823 66.92659334 121.68847823 58.625 113.75 C43.02156569 109.99305659 25.28345093 113.44339009 14.41918945 125.79760742 Z M133 131 C133 131.66 133 132.32 133 133 C132.01 133.33 131.02 133.66 130 134 C128.25735771 136.07049533 126.67961817 138.10777933 125.125 140.3125 C124.68099854 140.93898437 124.23699707 141.56546875 123.77954102 142.2109375 C115.9128047 153.64506332 112.21213627 166.08446061 114 180 C115.81516745 184.37189722 118.3667569 188.08212802 121 192 C122.52017998 194.56044306 123.97919029 197.15394595 125.4375 199.75 C126.12293108 200.95356204 126.80906055 202.15672679 127.49609375 203.359375 C127.99238281 204.23078125 128.48867187 205.1021875 129 206 C130.70821446 202.96403704 131.68629049 199.85519112 132.64868164 196.51708984 C139.23529288 173.73805836 155.69940596 152.57710766 176.375 140.625 C185.78571648 135.91267086 195.77134394 132.41209687 206 130 C203.41062152 127.01364363 200.42286713 125.49457354 196.9375 123.6875 C192.76313373 121.5219899 188.90835373 119.25843068 185.0625 116.5625 C168.54519618 106.55039039 145.15074766 119.29732763 133 131 Z M17.69140625 156.97265625 C14.10949026 161.26599204 12.62016527 164.31074253 12.70703125 169.95703125 C12.71669922 171.06884766 12.72636719 172.18066406 12.73632812 173.32617188 C12.76146484 174.47666016 12.78660156 175.62714844 12.8125 176.8125 C12.82603516 177.98232422 12.83957031 179.15214844 12.85351562 180.35742188 C12.88879722 183.238752 12.9380972 186.11913904 13 189 C13.45383057 188.60675537 13.90766113 188.21351074 14.37524414 187.80834961 C33.73429184 171.10998773 54.4238293 164.37971502 80 166 C83.73438941 166.45847173 87.35626375 167.06399436 91 168 C89.4333219 163.76595202 87.39775834 159.86268571 85.1875 155.9375 C84.85685547 155.32583984 84.52621094 154.71417969 84.18554688 154.08398438 C80.72013003 147.9313729 76.38880486 144.79510213 70 142 C51.00122983 137.12331033 31.22031172 143.16131016 17.69140625 156.97265625 Z M175 157 C174.01 157.66 173.02 158.32 172 159 C172 159.66 172 160.32 172 161 C171.41734375 161.2578125 170.8346875 161.515625 170.234375 161.78125 C167.8197097 163.09834017 166.18259823 164.55088384 164.25 166.5 C163.63640625 167.1084375 163.0228125 167.716875 162.390625 168.34375 C160.78565912 169.89484277 160.78565912 169.89484277 161 172 C160.34 172 159.68 172 159 172 C147.82320358 185.02039171 141.82643423 201.07667177 141.8125 218.0625 C141.80025391 218.85205078 141.78800781 219.64160156 141.77539062 220.45507812 C141.77345703 221.22400391 141.77152344 221.99292969 141.76953125 222.78515625 C141.76542236 223.47488525 141.76131348 224.16461426 141.75708008 224.87524414 C142.27928788 229.44285674 144.62923851 233.29583181 146.86328125 237.23828125 C147.42080078 238.22376953 147.97832031 239.20925781 148.55273438 240.22460938 C149.13345703 241.24361328 149.71417969 242.26261719 150.3125 243.3125 C151.16618164 244.82360352 151.16618164 244.82360352 152.03710938 246.36523438 C155.23247071 251.99655429 158.52217268 257.53857135 162 263 C163.9322838 260.10157429 164.37373026 258.80744914 164.9375 255.5 C166.58113217 246.75944442 168.68836713 238.80200233 173 231 C173.42023438 230.16984375 173.84046875 229.3396875 174.2734375 228.484375 C179.43281525 218.50767769 186.14661001 209.73357563 193.78515625 201.5234375 C195.20782396 200.06413709 195.20782396 200.06413709 195 198 C195.99 197.67 196.98 197.34 198 197 C198 196.34 198 195.68 198 195 C198.54785156 194.76539063 199.09570312 194.53078125 199.66015625 194.2890625 C202.61509006 192.66113569 204.90033758 190.59888999 207.4375 188.375 C223.62650522 174.56024864 242.15867174 166.64963352 263 163 C260.59420552 160.3245177 258.0252895 158.74094713 254.88671875 157.00390625 C253.88576172 156.44509766 252.88480469 155.88628906 251.85351562 155.31054688 C250.28633789 154.44526367 250.28633789 154.44526367 248.6875 153.5625 C237.03468136 147.10001979 237.03468136 147.10001979 233.51953125 144.65234375 C216.73006491 133.64157745 188.67829258 146.69585929 175 157 Z M17.91015625 200.5078125 C13.8417252 205.81590864 12.62682565 209.90213765 12.70703125 216.5859375 C12.71127609 217.28772125 12.71552094 217.989505 12.71989441 218.71255493 C12.73656401 220.9337756 12.77419128 223.15405788 12.8125 225.375 C12.82756212 226.88930973 12.84124784 228.40363381 12.85351562 229.91796875 C12.88642817 233.61227932 12.93812741 237.30604793 13 241 C14.17453735 239.82304565 14.17453735 239.82304565 15.37280273 238.62231445 C35.16174643 218.87014977 59.15371371 208.90914072 87.125 208.625 C94.82507348 208.65144937 101.85722867 209.37305794 109.3203125 211.34375 C112.1877191 212.15857915 112.1877191 212.15857915 116 212 C115.11485093 207.14892329 112.3911491 203.33280426 109.875 199.16796875 C108.72696648 197.22827046 107.6295828 195.25600864 106.625 193.23828125 C102.81299128 185.82982382 97.50616867 182.41854757 90 179 C87.96037442 178.3610107 87.96037442 178.3610107 86 178 C85.27683594 177.82339844 84.55367188 177.64679688 83.80859375 177.46484375 C58.29712719 171.79095909 35.01079791 181.57606765 17.91015625 200.5078125 Z M23.5234375 248.046875 C18.2333353 254.23776859 12.86125362 261.79745388 12.88647461 270.19604492 C12.88655014 271.03668991 12.88662567 271.8773349 12.88670349 272.74345398 C12.89186478 273.64666885 12.89702606 274.54988373 12.90234375 275.48046875 C12.9037587 276.40845779 12.90517365 277.33644684 12.90663147 278.29255676 C12.91223063 281.25757058 12.92478296 284.22250899 12.9375 287.1875 C12.94251511 289.19726453 12.947078 291.20703025 12.95117188 293.21679688 C12.96219979 298.14456032 12.97946383 303.07226737 13 308 C13.33 307.01 13.66 306.02 14 305 C14.66 305 15.32 305 16 305 C17.39582572 303.58023447 17.39582572 303.58023447 18.875 301.6875 C28.30622877 290.72635938 38.20235952 283.47994906 51 277 C51.91136719 276.51917969 52.82273438 276.03835938 53.76171875 275.54296875 C59.62394214 272.64406707 65.76056965 270.71668938 72 268.8125 C73.22831543 268.43702026 73.22831543 268.43702026 74.48144531 268.05395508 C85.81522668 264.72254439 96.6248703 263.56650363 108.4375 263.5625 C109.13710846 263.55977081 109.83671692 263.55704163 110.55752563 263.55422974 C122.65319472 263.54715433 133.47680846 265.32750949 145 269 C146.66045278 269.36302266 148.32481148 269.71254162 150 270 C145.84458234 261.26052562 141.43034745 252.70537862 136.5 244.375 C135.86130981 243.25762451 135.86130981 243.25762451 135.2097168 242.11767578 C128.682538 231.31769497 117.29344274 226.02806159 105.51953125 222.578125 C75.46194672 215.68119088 44.69134238 226.33309291 23.5234375 248.046875 Z " fill="#000000" transform="translate(1,1)"/>
<path d="" fill="#000000" transform="translate(0,0)"/>
<path d="" fill="#000000" transform="translate(0,0)"/>
</svg>
